{"title":"Tom Horn 1980 DVDRip x264-PsiX","uid":9371637,"size":1275642762,"categoryP":"video","categoryS":"movies","magnet":"?xt=urn:btih:a0e44a3a00641897408e8222cdc971c6649c6b23&amp;dn=Tom+Horn+1980+DVDRip+x264-PsiX&amp;tr=udp%3A%2F%2Ftracker.openbittorrent.com%3A80&amp;tr=udp%3A%2F%2Fopen.demonii.com%3A1337&amp;tr=udp%3A%2F%2Ftracker.coppersurfer.tk%3A6969&amp;tr=udp%3A%2F%2Fexodus.desync.com%3A6969","seeders":0,"leechers":0,"uploader":"7","files":-1,"time":1387539591,"description":"Genre\tAction, Crime, Drama\nActors\tSteve McQueen, Linda Evans, Richard Farnsworth\nPlot\tA renowned former army scout is hired by ranchers to hunt down rustlers but finds himself on trial for the murder of a boy when he carries out his job too well...\nIMDB link\t\n &lt;a href=&quot;\nhttp://www.imdb.com/title/tt0080031/&quot; rel=&quot;nofollow&quot; target=&quot;_NEW&quot;&gt;\nhttp://www.imdb.com/title/tt0080031/&lt;/a&gt;\n\nA renowned former army scout is hired by ranchers\nto hunt down rustlers but finds himself on trial for\nthe murder of a boy when he carries out his job too\nwell. Tom Horn finds that the ...\n\n\nDirector:\nWilliam Wiard\nWriters:\nThomas McGuane , Bud Shrake\nStars:\nSteve McQueen, Linda Evans, Richard Farnsworth\n &lt;a href=&quot;\nhttp://www.imdb.com/title/tt0080031/&quot; rel=&quot;nofollow&quot; target=&quot;_NEW&quot;&gt;\nhttp://www.imdb.com/title/tt0080031/&lt;/a&gt;\n\n\n\n\n\nFormat : Matroska\nFormat version : Version 2\nFile size : 1.19 GiB\nDuration : 1h 37mn\nOverall bit rate : 1 743 Kbps\nEncoded date : UTC 2013-10-21 12:50:38\nWriting application : mkvmerge v6.2.0 ('Promised Land') built on Apr 28 2013 12:22:01\nWriting library : libebml v1.3.0 + libmatroska v1.4.0\n\nVideo\nID : 1\nFormat : AVC\nFormat/Info : Advanced Video Codec\nFormat profile : &lt;a class=&quot;__cf_email__&quot; href=&quot;/cdn-cgi/l/email-protection&quot; data-cfemail=&quot;84ccede3ecc4c8b0aab5&quot;&gt;[email&amp;#160;protected]&lt;/a&gt;&lt;script data-cfhash='f9e31' type=&quot;text/javascript&quot;&gt;\n/* &lt;![CDATA[ */!function(){try{var t=&quot;currentScript&quot;in document?document.currentScript:function(){for(var t=document.getElementsByTagName(&quot;script&quot;),e=t.length;e--;)if(t[e].getAttribute(&quot;data-cfhash&quot;))return t[e]}();if(t&amp;&amp;t.previousSibling){var e,r,n,i,c=t.previousSibling,a=c.getAttribute(&quot;data-cfemail&quot;);if(a){for(e=&quot;&quot;,r=parseInt(a.substr(0,2),16),n=2;a.length-n;n+=2)i=parseInt(a.substr(n,2),16)^r,e+=String.fromCharCode(i);e=document.createTextNode(e),c.parentNode.replaceChild(e,c)}t.parentNode.removeChild(t);}}catch(u){}}()/* ]]&gt; */&lt;/script&gt;\nFormat settings, CABAC : Yes\nFormat settings, ReFrames : 8 frames\nCodec ID : V_MPEG4/ISO/AVC\nDuration : 1h 37mn\nBit rate : 1 550 Kbps\nWidth : 720 pixels\nHeight : 304 pixels\nDisplay aspect ratio : 2.35:1\nFrame rate mode : Constant\nFrame rate : 23.976 fps\nColor space : YUV\nChroma subsampling : 4:2:0\nBit depth : 8 bits\nScan type : Progressive\nBits/(Pixel*Frame) : 0.295\nStream size : 1.03 GiB (87%)\nWriting library : x264 core 133 r2334 a3ac64b\n\nAudio\nID : 2\nFormat : AC-3\nFormat/Info : Audio Coding 3\nMode extension : CM (complete main)\nFormat settings, Endianness : Big\nCodec ID : A_AC3\nDuration : 1h 37mn\nBit rate mode : Constant\nBit rate : 192 Kbps\nChannel(s) : 1 channel\nChannel positions : Front: C\nSampling rate : 48.0 KHz\nBit depth : 16 bits\nCompression mode : Lossy\nDelay relative to video : 16ms\nStream size : 134 MiB (11%)\nDefault : Yes\nForced : No\n\nMenu\n00:00:00.000 : en:Chapter 01\n00:02:43.367 : en:Chapter 02\n00:06:55.834 : en:Chapter 03\n00:11:15.201 : en:Chapter 04\n00:15:31.835 : en:Chapter 05\n00:17:39.502 : en:Chapter 06\n00:21:17.203 : en:Chapter 07\n00:23:20.503 : en:Chapter 08\n00:28:35.037 : en:Chapter 09\n00:32:35.671 : en:Chapter 10\n00:35:03.038 : en:Chapter 11\n00:39:39.505 : en:Chapter 12\n00:43:12.705 : en:Chapter 13\n00:46:51.172 : en:Chapter 14\n00:48:38.172 : en:Chapter 15\n00:53:06.339 : en:Chapter 16\n00:58:42.040 : en:Chapter 17\n01:03:12.874 : en:Chapter 18\n01:08:57.341 : en:Chapter 19\n01:11:28.175 : en:Chapter 20\n01:17:42.009 : en:Chapter 21\n01:20:12.176 : en:Chapter 22\n01:25:49.676 : en:Chapter 23\n01:29:22.843 : en:Chapter 24\n01:34:54.677 : en:Chapter 25\n\n\n\nEncoded...............PsiX\n\nSource ................DVD NTSC\n\nSample.................No\n\nSubs....................No\n\n","torrent":{"xt":"urn:btih:a0e44a3a00641897408e8222cdc971c6649c6b23","amp;dn":"Tom+Horn+1980+DVDRip+x264-PsiX","amp;tr":["udp%3A%2F%2Ftracker.openbittorrent.com%3A80","udp%3A%2F%2Fopen.demonii.com%3A1337","udp%3A%2F%2Ftracker.coppersurfer.tk%3A6969","udp%3A%2F%2Fexodus.desync.com%3A6969"],"infoHash":"a0e44a3a00641897408e8222cdc971c6649c6b23","infoHashBuffer":{"type":"Buffer","data":[160,228,74,58,0,100,24,151,64,142,130,34,205,201,113,198,100,156,107,35]},"announce":[],"urlList":[]}}